<svg xmlns="http://www.w3.org/2000/svg" xmlns:xlink="http://www.w3.org/1999/xlink" version="1.1" x="0px" y="0px" viewBox="0 0 100 100" enable-background="new 0 0 100 100" xml:space="preserve"><g><g><path d="M83.484,93h-67C13.723,93,12,90.923,12,88.161V70.318c0-1.341,0.281-2.626,1.237-3.566l33.621-33.168    c1.958-1.922,5.03-1.909,6.972,0.026l33.475,33.168C88.246,67.717,89,68.99,89,70.318v17.843C89,90.923,86.246,93,83.484,93z     M22,83h57V72.393L50.724,44.187L22,72.415V83z"></path></g><g><g><path d="M93.28,56.984c-1.277,0-2.556-0.486-3.531-1.46L50.874,16.745c-0.325-0.324-0.861-0.327-1.192-0.001L10.224,55.521     c-1.97,1.935-5.135,1.907-7.071-0.062c-1.936-1.97-1.908-5.136,0.062-7.071l39.46-38.779c4.226-4.145,11.068-4.12,15.259,0.054     l38.878,38.782c1.955,1.95,1.959,5.116,0.009,7.071C95.844,56.494,94.562,56.984,93.28,56.984z"></path></g></g></g></svg>